<?xml version="1.0" encoding="utf-8"?>
<!-- Generator: Adobe Illustrator 25.4.1, SVG Export Plug-In . SVG Version: 6.00 Build 0)  -->
<svg version="1.1" id="Layer_1" xmlns="http://www.w3.org/2000/svg" xmlns:xlink="http://www.w3.org/1999/xlink" x="0px" y="0px"
	 viewBox="0 0 64 64" style="enable-background:new 0 0 64 64;" xml:space="preserve">
<style type="text/css">
	.st0{fill:#00FF33;}
</style>
<g>
	<g>
		<path class="st0" d="M63.99897,8.9878139c-0.0006905-0.0773201-0.0023499-0.1544046-0.0049591-0.2312412
			c-0.0514526-2.2241764-0.9196625-4.4330692-2.6130791-6.131053c-3.0788689-3.087141-7.8433876-3.4519408-11.3266945-1.0938585
			c-0.6754608,0.4572632-1.2896729,1.0047045-1.8229332,1.622592c-0.5295677,0.6136158-0.9792709,1.296474-1.3323212,2.0266943
			c-0.3516312,0.7272911-0.60709,1.5014687-0.7519684,2.2967062c-0.1808586,0.9927144-0.1059341,2.004005-0.1857071,3.0052228
			c-0.0769005,0.9651299-0.2561073,1.9220028-0.5340309,2.8492546c-0.2433739,0.8119755-0.562458,1.6011858-0.9534836,2.352994
			c-0.9768143,1.8780785-2.394104,3.517561-4.107708,4.7561264c-1.7435722,1.2602272-3.7815552,2.0929222-5.9076958,2.4104538
			c-1.3735161,0.2051277-2.7630768,0.0522537-4.1253395,0.3229408c-1.2276936,0.2439461-2.4034271,0.7427788-3.4312344,1.4590359
			c-0.6446629,0.4492493-1.2302341,0.9833546-1.7349873,1.5863457c-1.3537674,1.6172466-2.1018925,3.6877651-2.1024933,5.7985992
			c-0.0000458,0.1560326,0.0038548,0.3111305,0.0116005,0.4652061c0.0028667,0.0569763,0.006794,0.1136627,0.0107059,0.1703491
			c0.0023518,0.0361481,0.0052814,0.0722618,0.0080624,0.1083908c0.158514,2.0588264,1.0209618,4.0734177,2.5917034,5.6477356
			c1.4521427,1.4560547,3.2799969,2.3049164,5.1707363,2.5505333c0.0566788,0.0073662,0.1133575,0.0146713,0.1701336,0.0209465
			c0.0479069,0.0054779,0.0958042,0.0109711,0.1439419,0.0156937c0.2932644,0.0287895,0.59058,0.0437965,0.8914566,0.0437126
			c3.0370331-0.0008926,5.9226913-1.5765495,7.5685463-4.1368446c0.2434196-0.3786621,0.4569206-0.7765503,0.6406212-1.1876221
			c0.3801308-0.8506203,0.6402245-1.783844,0.749527-2.7208443c0.1203232-1.0314217,0.1187401-2.0719547,0.2150879-3.1053352
			c0.0950775-1.0197182,0.3507156-2.0015297,0.709259-2.9595127c0.1252861-0.3347416,0.2638283-0.6644936,0.4151764-0.9882298
			c0.1504517-0.3218231,0.3135452-0.6377048,0.4887466-0.9466877c0.1744461-0.3076458,0.3608856-0.6084518,0.5587234-0.9015274
			c0.1972542-0.2922173,0.405838-0.576746,0.6250954-0.8527527c0.2188835-0.2755432,0.4484062-0.542593,0.68787-0.8003616
			c0.2393341-0.257637,0.4885941-0.5059986,0.7470436-0.7443542c0.258606-0.2384968,0.5264053-0.4669724,0.8026161-0.6847229
			c0.2767029-0.2181396,0.5618439-0.4255199,0.8545914-0.6214828c0.2936401-0.1965618,0.5949249-0.3816357,0.9029655-0.5546227
			c0.3094177-0.1737595,0.6256523-0.3353195,0.9477386-0.4841442c0.3240547-0.1497326,0.6540337-0.2865677,0.9889145-0.4100494
			c0.3375511-0.1244698,0.6800766-0.2353668,1.0264854-0.3323402c0.3499222-0.0979557,0.7037926-0.1817017,1.0604591-0.2510109
			c0.3611641-0.0701828,0.7251816-0.1255608,1.0908394-0.1660671c0.3712692-0.0411263,0.7442245-0.0669212,1.1175995-0.0775032
			c0.4500618-0.0127525,0.9008751,0.0018826,1.3503685-0.0301495c0.4141273-0.0295143,0.8260498-0.089222,1.2318039-0.17729
			c0.8124504-0.1763382,1.5999107-0.4662209,2.3352242-0.8546391c0.7364082-0.3889961,1.421032-0.8770924,2.0265732-1.4498367
			c0.3638153-0.3441029,0.6989822-0.7187471,0.9991722-1.1198797C63.3673325,12.9284801,64,11.0132961,64,9.0698652
			C64,9.0424318,63.9992065,9.0151873,63.99897,8.9878139z"/>
	</g>
	<g>
		<path class="st0" d="M63.9985161,31.9466496c-0.0006638-0.0773468-0.0023117-0.154417-0.0049553-0.231266
			c-0.051445-2.2241478-0.9196243-4.4330711-2.6130142-6.131031c-3.0789833-3.0871468-7.8434258-3.4519367-11.3266983-1.0938797
			c-0.6755028,0.4572544-1.2897568,1.004715-1.822937,1.6225948c-0.5296516,0.6135921-0.9793282,1.2964497-1.3323898,2.0266895
			c-0.351635,0.7272739-0.6070938,1.5014935-0.7519569,2.296711c-0.1808815,0.992733-0.1058617,2.0039883-0.18573,3.0052395
			c-0.0768929,0.9651375-0.2561226,1.9219704-0.533947,2.8492317c-0.243454,0.811985-0.5624809,1.6012077-0.9535522,2.3530006
			c-0.9767914,1.8780479-2.3941193,3.5175743-4.1076622,4.7561378c-1.7436218,1.2602234-3.7815895,2.0929298-5.9076881,2.4104462
			c-0.7543793,0.1126366-1.513382,0.1206055-2.2704086,0.1467743c-0.5230408-0.0155029-1.0471859-0.0163269-1.5687962-0.0577202
			c-0.9670982-0.0767403-1.9258232-0.255619-2.8549194-0.5330048c-0.8135338-0.2428627-1.6042652-0.5613136-2.3575439-0.9515572
			c-1.8818722-0.9749184-3.5245838-2.3893929-4.765543-4.0996094c-1.2627716-1.7401276-2.097126-3.774128-2.4152679-5.8960266
			c-0.1120358-0.7475586-0.1206284-1.4996262-0.1462936-2.2496567c0.0521049-0.7594337,0.0822887-1.5205688,0.1530113-2.2787361
			c0.0950699-1.0197239,0.3507519-2.0015125,0.7092133-2.9595032c0.1253624-0.3347778,0.2639446-0.6644955,0.4153061-0.9882221
			c0.1503696-0.3218613,0.3135166-0.6377258,0.4886723-0.9467201c0.1744938-0.307621,0.3608856-0.6084251,0.558733-0.9015331
			c0.1971893-0.2921734,0.4058304-0.5767059,0.6250515-0.8527203c0.2188892-0.2755718,0.4484634-0.5426235,0.6878414-0.8003845
			c0.2393799-0.2576523,0.4886723-0.506012,0.7471085-0.7443695c0.2586575-0.2384663,0.5263481-0.4669266,0.8026314-0.6847248
			c0.276722-0.2181282,0.5618172-0.4254799,0.8546238-0.6214523c0.2935772-0.196579,0.5948677-0.3816128,0.9028759-0.5546093
			c0.3094406-0.1737652,0.6257095-0.3353271,0.9478207-0.4841881c0.3239841-0.1496887,0.6539116-0.2865677,0.9888-0.4100323
			c0.3376427-0.1244564,0.6801319-0.2353344,1.0264759-0.3323593c0.3499794-0.0979042,0.7039261-0.1816807,1.0605145-0.2509995
			c0.3612175-0.0701427,0.7251892-0.125555,1.0909214-0.166069c0.3712387-0.0411186,0.7442436-0.0669003,1.1174679-0.0775108
			c0.4501152-0.0127525,0.9008923,0.0019245,1.3504581-0.0301228c0.414093-0.02952,0.8260918-0.08922,1.2317047-0.1772842
			c0.812542-0.1763477,1.599968-0.4662132,2.335289-0.8546429c0.7364235-0.388979,1.4209633-0.8770695,2.0266228-1.4498177
			c0.3637543-0.3441229,0.6989708-0.7187529,0.9991608-1.1198807c1.1635132-1.5549259,1.7962761-3.4701338,1.7962761-5.4135418
			c0-0.0274305-0.0008812-0.0546961-0.0011024-0.0820723c-0.0006638-0.0772905-0.0023117-0.1543598-0.0048485-0.2312107
			c-0.0515556-2.2242031-0.9197311-4.4330692-2.6131172-6.1310849C35.2978477-0.46116,30.5332985-0.8260062,27.0500221,1.5321077
			c-0.6753941,0.4572532-1.28965,1.0047148-1.822937,1.6225947c-0.529541,0.6135926-0.9792175,1.2964485-1.3323898,2.0266907
			c-0.3516331,0.7272735-0.6069851,1.5014372-0.7519569,2.29671c-0.1808834,0.9926763-0.1058636,2.0039878-0.18573,3.0051847
			c-0.0768929,0.9651346-0.2560139,1.9220247-0.533947,2.8492832c-0.2433472,0.811986-0.5624809,1.6011572-0.9534397,2.3530035
			c-0.9769039,1.878047-2.3942299,3.5175714-4.1077766,4.7561369c-1.7435083,1.2602215-3.7814789,2.0928745-5.9076862,2.4104462
			c-1.3735914,0.2050972-2.7631559,0.0522232-4.1254005,0.3229008c-0.443727,0.0881748-0.8765473,0.2208233-1.3020973,0.3738079
			c-0.0133295,0.0045624-0.0263286,0.0097847-0.0395479,0.0144024c-0.2047882,0.0746517-0.4079242,0.15205-0.606874,0.2411613
			c-0.211288,0.0919113-0.4186101,0.1948166-0.6237288,0.3037167c-0.0231338,0.0125332-0.047369,0.0227032-0.0705028,0.0354557
			c-0.7351012,0.3986549-1.42768,0.9026871-2.0498667,1.5210648c-1.4589658,1.4493217-2.309515,3.2735519-2.5556135,5.1605606
			c-0.0073808,0.0565643-0.0146514,0.1131325-0.0210406,0.1698074c-0.005508,0.0477715-0.0109059,0.0955963-0.0156427,0.1436386
			C0.0149818,31.431345,0,31.7280827,0,32.028389c0.000661,2.020813,0.7148315,3.9651527,1.9430109,5.5297546
			c0.1066355,0.1376495,0.2164654,0.273262,0.332244,0.4059105c0.0846033,0.0957031,0.1689861,0.1905861,0.2575552,0.2827721
			c0.0511146,0.0538177,0.0967212,0.1110954,0.1493776,0.1639252c1.4521358,1.4560318,3.2799184,2.3049011,5.1707134,2.5505142
			c0.0566225,0.0073662,0.1133552,0.014679,0.1700878,0.0209427c0.0480309,0.0055008,0.0958405,0.010994,0.14398,0.0157242
			c0.2636137,0.0258331,0.531414,0.0365562,0.8011971,0.0392456c0.7347708,0.0479927,1.4710836,0.0787201,2.2045317,0.1468849
			c1.021739,0.094883,2.0055828,0.3500023,2.9654112,0.7078705c0.3354378,0.1250038,0.6658096,0.2632561,0.9902325,0.4143181
			c0.3223295,0.1501846,0.6389313,0.3129578,0.9484825,0.4878197c0.3082275,0.1740913,0.6096268,0.3601723,0.9033146,0.5575752
			c0.2928066,0.1969109,0.5779018,0.4050865,0.8544064,0.6238708c0.276062,0.2184601,0.5437527,0.447525,0.8019676,0.6865387
			c0.2582169,0.2388535,0.5069599,0.4875984,0.7457867,0.7455826c0.2390499,0.258091,0.4679623,0.5253639,0.686079,0.8009872
			c0.2185593,0.2761803,0.4264317,0.5607643,0.6227379,0.8529396c0.1969681,0.2930565,0.3823662,0.5937462,0.5557594,0.9011497
			c0.1740551,0.3088303,0.3359909,0.6244202,0.4851475,0.9458923c0.1500378,0.3233986,0.287077,0.6527328,0.4107876,0.9869614
			c0.1247025,0.3368645,0.2358551,0.6787338,0.3330154,1.0244484c0.0981541,0.3492317,0.1819859,0.7024269,0.2514973,1.0583687
			c0.0703926,0.3604431,0.125803,0.7237549,0.1664524,1.0887108c0.0412006,0.3705063,0.0669765,0.7427177,0.0775528,1.1153755
			c0.0127792,0.4491692-0.0017624,0.8991127,0.0301857,1.3476791c0.0296326,0.4133301,0.0894489,0.8244629,0.1777973,1.2293816
			c0.1277866,0.5869865,0.3344479,1.1525345,0.5758095,1.7031326c0.0668659,0.1619453,0.138031,0.3221321,0.2148132,0.4806709
			c0.0243454,0.047821,0.0404282,0.0994377,0.065546,0.1468239c0.0138779,0.026001,0.0324955,0.0491447,0.0464859,0.0750389
			c0.4111195,0.7923012,0.9405518,1.5388718,1.6039371,2.2039185c1.452137,1.4560852,3.2800293,2.3049011,5.1707153,2.5505104
			c0.0567322,0.0073662,0.1134644,0.014679,0.1701965,0.0209465c0.0479183,0.0054932,0.0958405,0.010994,0.14398,0.0157242
			C31.4640446,63.9850998,31.761364,64.0001068,32.0622139,64c2.0763054-0.0006027,4.0714226-0.7508545,5.6583939-2.0349922
			c0.0714951-0.0564575,0.1422195-0.1141243,0.2122803-0.1731071c0.1330719-0.1145554,0.2646065-0.2297249,0.3910675-0.35215
			c0.0549736-0.0519447,0.1136894-0.0974045,0.1676674-0.151001c1.8139-1.8019142,2.6824074-4.1820183,2.6201668-6.543869
			c0.0358009-0.6322289,0.0654335-1.2648926,0.1241493-1.8955269c0.0951805-1.019722,0.3507538-2.0015144,0.7093239-2.9595032
			c0.1252556-0.3347206,0.2638359-0.6644974,0.4151955-0.988224c0.1504784-0.3218575,0.3135147-0.637722,0.4886703-0.9467201
			c0.1744957-0.307621,0.3608856-0.6084213,0.5587349-0.9015312c0.1973-0.2921753,0.4058342-0.5767059,0.625164-0.8527184
			c0.2188873-0.2755699,0.4484596-0.5426254,0.6878395-0.8003845c0.2393799-0.2575951,0.4885635-0.5059586,0.7469978-0.7443161
			c0.2586594-0.2385216,0.5264587-0.4669838,0.8026314-0.6847267c0.276722-0.2181816,0.5618172-0.4255333,0.8546257-0.6215057
			c0.2936859-0.196579,0.5948677-0.3816147,0.9029846-0.5546112c0.3094406-0.1737633,0.6256027-0.3353233,0.9477119-0.4841309
			c0.3240891-0.1497421,0.6540222-0.2865677,0.9889107-0.4100876c0.3376427-0.1244583,0.6800194-0.2353325,1.0265846-0.3323021
			c0.3498726-0.0979614,0.7037048-0.1817398,1.0604057-0.2510567c0.3611031-0.0701447,0.7250748-0.1255569,1.0908089-0.1660156
			c0.3712425-0.041172,0.7442436-0.0669518,1.1176872-0.077507c0.4498978-0.0127563,0.9007835,0.0018692,1.3503494-0.0301819
			c0.4139824-0.0295181,0.8259811-0.0892181,1.2318115-0.1772804c0.8123245-0.1763496,1.599865-0.4662132,2.335186-0.854641
			c0.7363091-0.3889809,1.4210701-0.8770752,2.0265083-1.4498215c0.3638611-0.3441238,0.6990776-0.7187538,0.999157-1.1198807
			c1.1637383-1.554924,1.7962761-3.4700775,1.7962761-5.4135437C63.9995041,32.001236,63.9987373,31.9740238,63.9985161,31.9466496z
			"/>
	</g>
</g>
</svg>
